<?xml version="1.0" encoding="UTF-8"?>
<svg viewBox="0 0 3840 1200" width="3840" height="1200"
     xmlns="http://www.w3.org/2000/svg" xmlns:xlink="http://www.w3.org/1999/xlink">
  <defs>
    <!-- Arrow marker -->
    <marker id="arrowhead" markerWidth="10" markerHeight="10" refX="9" refY="3" orient="auto">
      <polygon points="0 0, 10 3, 0 6" fill="#666666"/>
    </marker>
  </defs>

  <!-- Background -->
  <rect width="3840" height="1200" fill="#FAFAFA"/>

  <!-- Grid for reference (faint) -->
  <defs>
    <pattern id="grid" width="100" height="100" patternUnits="userSpaceOnUse">
      <path d="M 100 0 L 0 0 0 100" fill="none" stroke="#E0E0E0" stroke-width="0.5"/>
    </pattern>
  </defs>
  <rect width="3840" height="1200" fill="url(#grid)"/>

  <!-- ========== LEGEND (top-left) ========== -->
  <g transform="translate(50, 15)">
    <text x="0" y="12" font-size="11" font-family="Arial, sans-serif" font-weight="bold" fill="#555">Legend</text>
    <!-- Event -->
    <rect x="0" y="20" width="18" height="12" fill="#FF8C00" rx="2"/>
    <text x="22" y="30" font-size="9" font-family="Arial, sans-serif" fill="#555">Domain Event</text>
    <!-- Command -->
    <rect x="110" y="20" width="18" height="12" fill="#4169E1" rx="2"/>
    <text x="132" y="30" font-size="9" font-family="Arial, sans-serif" fill="#555">Command</text>
    <!-- Actor -->
    <rect x="200" y="20" width="14" height="10" fill="#FFF8DC" stroke="#999" stroke-width="0.5" rx="2"/>
    <text x="218" y="30" font-size="9" font-family="Arial, sans-serif" fill="#555">Actor</text>
    <!-- Aggregate -->
    <rect x="265" y="18" width="20" height="16" fill="#FFD700" rx="2"/>
    <text x="289" y="30" font-size="9" font-family="Arial, sans-serif" fill="#555">Aggregate</text>
    <!-- Policy -->
    <rect x="360" y="20" width="18" height="12" fill="#9370DB" rx="2"/>
    <text x="382" y="30" font-size="9" font-family="Arial, sans-serif" fill="#555">Policy</text>
    <!-- Read Model -->
    <rect x="430" y="20" width="18" height="12" fill="#3CB371" rx="2"/>
    <text x="452" y="30" font-size="9" font-family="Arial, sans-serif" fill="#555">Read Model</text>
    <!-- External System -->
    <rect x="530" y="20" width="18" height="12" fill="#F0F0F0" stroke="#999" stroke-width="0.5" rx="2"/>
    <text x="552" y="30" font-size="9" font-family="Arial, sans-serif" fill="#555">External System</text>
    <!-- Hotspot -->
    <rect x="650" y="20" width="18" height="12" fill="#FF6B6B" rx="2" transform="rotate(-8 659 26)"/>
    <text x="672" y="30" font-size="9" font-family="Arial, sans-serif" fill="#555">Hotspot</text>
  </g>

  <!-- ========== CONTEXT ZONE BORDERS ========== -->
  <!-- Group 1: Card Issuance -->
  <rect x="50" y="100" width="760" height="530" fill="none" stroke="#2E8B57" stroke-width="2" stroke-dasharray="8,4" rx="5"/>
  <text x="60" y="120" font-size="14" font-family="Arial, sans-serif" font-weight="bold" fill="#2E8B57">Card Issuance</text>

  <!-- Group 2: Purchase Authorization -->
  <rect x="860" y="100" width="830" height="660" fill="none" stroke="#4169E1" stroke-width="2" stroke-dasharray="8,4" rx="5"/>
  <text x="870" y="120" font-size="14" font-family="Arial, sans-serif" font-weight="bold" fill="#4169E1">Purchase Authorization</text>

  <!-- Group 3: Clearing & Settlement -->
  <rect x="1740" y="100" width="650" height="490" fill="none" stroke="#9370DB" stroke-width="2" stroke-dasharray="8,4" rx="5"/>
  <text x="1750" y="120" font-size="14" font-family="Arial, sans-serif" font-weight="bold" fill="#9370DB">Clearing &amp; Settlement</text>

  <!-- Group 4: Billing & Payment -->
  <rect x="2440" y="100" width="1350" height="660" fill="none" stroke="#808080" stroke-width="2" stroke-dasharray="8,4" rx="5"/>
  <text x="2450" y="120" font-size="14" font-family="Arial, sans-serif" font-weight="bold" fill="#808080">Billing &amp; Payment</text>

  <!-- ================================================================ -->
  <!-- ZONE 1: CARD ISSUANCE                                           -->
  <!-- ================================================================ -->

  <!-- Actor: Card Holder -->
  <g transform="translate(100, 200) rotate(0.9)">
    <rect x="0" y="2" width="100" height="70" fill="#00000020" rx="3"/>
    <rect x="0" y="0" width="100" height="70" fill="#FFF8DC" stroke="#333333" stroke-width="1" rx="3"/>
    <text x="10" y="40" font-size="12" font-family="Arial, sans-serif" fill="#000000" font-weight="500">Card Holder</text>
  </g>

  <!-- Command: Issue Credit Card -->
  <g transform="translate(260, 200) rotate(-1.5)">
    <rect x="0" y="2" width="140" height="90" fill="#00000020" rx="3"/>
    <rect x="0" y="0" width="140" height="90" fill="#4169E1" stroke="#333333" stroke-width="1" rx="3"/>
    <text x="7" y="35" font-size="12" font-family="Arial, sans-serif" fill="#FFFFFF" font-weight="500">Issue</text>
    <text x="7" y="51" font-size="12" font-family="Arial, sans-serif" fill="#FFFFFF" font-weight="500">Credit Card</text>
  </g>

  <!-- Aggregate: Credit Card -->
  <g transform="translate(280, 340) rotate(-0.7)">
    <rect x="0" y="2" width="150" height="110" fill="#00000020" rx="3"/>
    <rect x="0" y="0" width="150" height="110" fill="#FFD700" stroke="#333333" stroke-width="1" rx="3"/>
    <text x="10" y="45" font-size="13" font-family="Arial, sans-serif" fill="#000000" font-weight="600">Credit Card</text>
  </g>

  <!-- Event: Credit Card Issued -->
  <g transform="translate(470, 200) rotate(1.2)">
    <rect x="0" y="2" width="140" height="90" fill="#00000020" rx="3"/>
    <rect x="0" y="0" width="140" height="90" fill="#FF8C00" stroke="#333333" stroke-width="1" rx="3"/>
    <text x="7" y="35" font-size="12" font-family="Arial, sans-serif" fill="#000000" font-weight="500">Credit Card</text>
    <text x="7" y="51" font-size="12" font-family="Arial, sans-serif" fill="#000000" font-weight="500">Issued</text>
  </g>

  <!-- Hotspot: Credit limit rules -->
  <g transform="translate(350, 510) rotate(13)">
    <rect x="0" y="2" width="130" height="80" fill="#00000020" rx="3"/>
    <rect x="0" y="0" width="130" height="80" fill="#FF6B6B" stroke="#333333" stroke-width="1" rx="3"/>
    <text x="7" y="22" font-size="11" font-family="Arial, sans-serif" fill="#000000" font-weight="500">What determines</text>
    <text x="7" y="38" font-size="11" font-family="Arial, sans-serif" fill="#000000" font-weight="500">credit limit?</text>
  </g>

  <!-- Arrows: Zone 1 -->
  <!-- Card Holder → Issue Credit Card -->
  <line x1="200" y1="240" x2="258" y2="245" stroke="#666" stroke-width="1.5" marker-end="url(#arrowhead)"/>
  <!-- Issue Credit Card → Credit Card Issued -->
  <line x1="400" y1="245" x2="468" y2="245" stroke="#666" stroke-width="1.5" marker-end="url(#arrowhead)"/>

  <!-- ================================================================ -->
  <!-- ZONE 2: PURCHASE AUTHORIZATION                                   -->
  <!-- ================================================================ -->

  <!-- Actor: Merchant -->
  <g transform="translate(910, 200) rotate(-0.5)">
    <rect x="0" y="2" width="100" height="70" fill="#00000020" rx="3"/>
    <rect x="0" y="0" width="100" height="70" fill="#FFF8DC" stroke="#333333" stroke-width="1" rx="3"/>
    <text x="12" y="40" font-size="12" font-family="Arial, sans-serif" fill="#000000" font-weight="500">Merchant</text>
  </g>

  <!-- Command: Authorize Purchase -->
  <g transform="translate(1070, 200) rotate(1.8)">
    <rect x="0" y="2" width="140" height="90" fill="#00000020" rx="3"/>
    <rect x="0" y="0" width="140" height="90" fill="#4169E1" stroke="#333333" stroke-width="1" rx="3"/>
    <text x="7" y="35" font-size="12" font-family="Arial, sans-serif" fill="#FFFFFF" font-weight="500">Authorize</text>
    <text x="7" y="51" font-size="12" font-family="Arial, sans-serif" fill="#FFFFFF" font-weight="500">Purchase</text>
  </g>

  <!-- Aggregate: Purchase Authorization -->
  <g transform="translate(1080, 370) rotate(-1.2)">
    <rect x="0" y="2" width="170" height="110" fill="#00000020" rx="3"/>
    <rect x="0" y="0" width="170" height="110" fill="#FFD700" stroke="#333333" stroke-width="1" rx="3"/>
    <text x="10" y="38" font-size="12" font-family="Arial, sans-serif" fill="#000000" font-weight="600">Purchase</text>
    <text x="10" y="54" font-size="12" font-family="Arial, sans-serif" fill="#000000" font-weight="600">Authorization</text>
  </g>

  <!-- Crossed-out sticky: "Transaction" (team refined the name) -->
  <g transform="translate(920, 390) rotate(3.5)">
    <rect x="0" y="2" width="110" height="70" fill="#00000020" rx="3"/>
    <rect x="0" y="0" width="110" height="70" fill="#FFFACD" stroke="#999999" stroke-width="1" rx="3"/>
    <text x="10" y="40" font-size="12" font-family="Arial, sans-serif" fill="#999999" font-weight="500">Transaction</text>
    <!-- Red X -->
    <line x1="10" y1="10" x2="100" y2="60" stroke="#CC0000" stroke-width="2.5"/>
    <line x1="100" y1="10" x2="10" y2="60" stroke="#CC0000" stroke-width="2.5"/>
  </g>

  <!-- Event: Purchase Authorized -->
  <g transform="translate(1310, 200) rotate(-2.1)">
    <rect x="0" y="2" width="140" height="90" fill="#00000020" rx="3"/>
    <rect x="0" y="0" width="140" height="90" fill="#FF8C00" stroke="#333333" stroke-width="1" rx="3"/>
    <text x="7" y="35" font-size="12" font-family="Arial, sans-serif" fill="#000000" font-weight="500">Purchase</text>
    <text x="7" y="51" font-size="12" font-family="Arial, sans-serif" fill="#000000" font-weight="500">Authorized</text>
  </g>

  <!-- Event: Purchase Declined -->
  <g transform="translate(1310, 340) rotate(0.9)">
    <rect x="0" y="2" width="140" height="90" fill="#00000020" rx="3"/>
    <rect x="0" y="0" width="140" height="90" fill="#FF8C00" stroke="#333333" stroke-width="1" rx="3"/>
    <text x="7" y="35" font-size="12" font-family="Arial, sans-serif" fill="#000000" font-weight="500">Purchase</text>
    <text x="7" y="51" font-size="12" font-family="Arial, sans-serif" fill="#000000" font-weight="500">Declined</text>
  </g>

  <!-- External System: Fraud Detection System -->
  <g transform="translate(910, 560) rotate(-1.5)">
    <rect x="0" y="2" width="200" height="70" fill="#00000020" rx="3"/>
    <rect x="0" y="0" width="200" height="70" fill="#F0F0F0" stroke="#333333" stroke-width="1" rx="3"/>
    <text x="10" y="28" font-size="12" font-family="Arial, sans-serif" fill="#000000" font-weight="500">Fraud Detection</text>
    <text x="10" y="44" font-size="12" font-family="Arial, sans-serif" fill="#000000" font-weight="500">System</text>
  </g>

  <!-- Policy: Notify Fraud on Decline -->
  <g transform="translate(1310, 530) rotate(0.4)">
    <rect x="0" y="2" width="160" height="90" fill="#00000020" rx="3"/>
    <rect x="0" y="0" width="160" height="90" fill="#9370DB" stroke="#333333" stroke-width="1" rx="3"/>
    <text x="7" y="30" font-size="11" font-family="Arial, sans-serif" fill="#FFFFFF" font-weight="500">When Declined</text>
    <text x="7" y="46" font-size="11" font-family="Arial, sans-serif" fill="#FFFFFF" font-weight="500">→ Notify Fraud</text>
  </g>

  <!-- Hotspot: Fraud rules -->
  <g transform="translate(1310, 690) rotate(-14)">
    <rect x="0" y="2" width="130" height="80" fill="#00000020" rx="3"/>
    <rect x="0" y="0" width="130" height="80" fill="#FF6B6B" stroke="#333333" stroke-width="1" rx="3"/>
    <text x="7" y="22" font-size="11" font-family="Arial, sans-serif" fill="#000000" font-weight="500">Which fraud</text>
    <text x="7" y="38" font-size="11" font-family="Arial, sans-serif" fill="#000000" font-weight="500">rules apply?</text>
  </g>

  <!-- Arrows: Zone 2 -->
  <!-- Merchant → Authorize Purchase -->
  <line x1="1010" y1="240" x2="1068" y2="245" stroke="#666" stroke-width="1.5" marker-end="url(#arrowhead)"/>
  <!-- Authorize Purchase → Purchase Authorized -->
  <line x1="1210" y1="245" x2="1308" y2="245" stroke="#666" stroke-width="1.5" marker-end="url(#arrowhead)"/>
  <!-- Authorize Purchase → Purchase Declined (diagonal) -->
  <line x1="1210" y1="275" x2="1308" y2="370" stroke="#666" stroke-width="1.5" marker-end="url(#arrowhead)"/>
  <!-- Purchase Declined → Notify Fraud policy -->
  <line x1="1380" y1="432" x2="1380" y2="528" stroke="#666" stroke-width="1.5" marker-end="url(#arrowhead)"/>
  <!-- Notify Fraud policy → Fraud Detection System -->
  <line x1="1310" y1="575" x2="1112" y2="580" stroke="#666" stroke-width="1.5" marker-end="url(#arrowhead)"/>

  <!-- ================================================================ -->
  <!-- ZONE 3: CLEARING & SETTLEMENT                                    -->
  <!-- ================================================================ -->

  <!-- Policy: End of Day Settlement -->
  <g transform="translate(1800, 200) rotate(-0.8)">
    <rect x="0" y="2" width="160" height="90" fill="#00000020" rx="3"/>
    <rect x="0" y="0" width="160" height="90" fill="#9370DB" stroke="#333333" stroke-width="1" rx="3"/>
    <text x="7" y="35" font-size="11" font-family="Arial, sans-serif" fill="#FFFFFF" font-weight="500">End of Day</text>
    <text x="7" y="51" font-size="11" font-family="Arial, sans-serif" fill="#FFFFFF" font-weight="500">→ Settle</text>
  </g>

  <!-- Command: Settle Transactions -->
  <g transform="translate(2010, 200) rotate(2.3)">
    <rect x="0" y="2" width="140" height="90" fill="#00000020" rx="3"/>
    <rect x="0" y="0" width="140" height="90" fill="#4169E1" stroke="#333333" stroke-width="1" rx="3"/>
    <text x="7" y="35" font-size="12" font-family="Arial, sans-serif" fill="#FFFFFF" font-weight="500">Settle</text>
    <text x="7" y="51" font-size="12" font-family="Arial, sans-serif" fill="#FFFFFF" font-weight="500">Transactions</text>
  </g>

  <!-- Event: Transaction Settled -->
  <g transform="translate(2200, 200) rotate(-1.7)">
    <rect x="0" y="2" width="140" height="90" fill="#00000020" rx="3"/>
    <rect x="0" y="0" width="140" height="90" fill="#FF8C00" stroke="#333333" stroke-width="1" rx="3"/>
    <text x="7" y="35" font-size="12" font-family="Arial, sans-serif" fill="#000000" font-weight="500">Transaction</text>
    <text x="7" y="51" font-size="12" font-family="Arial, sans-serif" fill="#000000" font-weight="500">Settled</text>
  </g>

  <!-- Event: Merchant Paid -->
  <g transform="translate(2200, 340) rotate(1.1)">
    <rect x="0" y="2" width="140" height="90" fill="#00000020" rx="3"/>
    <rect x="0" y="0" width="140" height="90" fill="#FF8C00" stroke="#333333" stroke-width="1" rx="3"/>
    <text x="7" y="40" font-size="12" font-family="Arial, sans-serif" fill="#000000" font-weight="500">Merchant Paid</text>
  </g>

  <!-- External System: Payment Network -->
  <g transform="translate(2160, 480) rotate(-0.3)">
    <rect x="0" y="2" width="190" height="70" fill="#00000020" rx="3"/>
    <rect x="0" y="0" width="190" height="70" fill="#F0F0F0" stroke="#333333" stroke-width="1" rx="3"/>
    <text x="10" y="28" font-size="12" font-family="Arial, sans-serif" fill="#000000" font-weight="500">Payment</text>
    <text x="10" y="44" font-size="12" font-family="Arial, sans-serif" fill="#000000" font-weight="500">Network</text>
  </g>

  <!-- Arrows: Zone 3 -->
  <!-- End of Day → Settle Transactions -->
  <line x1="1960" y1="245" x2="2008" y2="245" stroke="#666" stroke-width="1.5" marker-end="url(#arrowhead)"/>
  <!-- Settle Transactions → Transaction Settled -->
  <line x1="2150" y1="245" x2="2198" y2="245" stroke="#666" stroke-width="1.5" marker-end="url(#arrowhead)"/>
  <!-- Settle Transactions → Merchant Paid (diagonal) -->
  <line x1="2150" y1="270" x2="2198" y2="365" stroke="#666" stroke-width="1.5" marker-end="url(#arrowhead)"/>
  <!-- Merchant Paid → Payment Network -->
  <line x1="2270" y1="432" x2="2255" y2="478" stroke="#666" stroke-width="1.5" marker-end="url(#arrowhead)"/>

  <!-- ================================================================ -->
  <!-- ZONE 4: BILLING & PAYMENT                                        -->
  <!-- ================================================================ -->

  <!-- Command: Generate Statement -->
  <g transform="translate(2510, 200) rotate(-2.5)">
    <rect x="0" y="2" width="140" height="90" fill="#00000020" rx="3"/>
    <rect x="0" y="0" width="140" height="90" fill="#4169E1" stroke="#333333" stroke-width="1" rx="3"/>
    <text x="7" y="35" font-size="12" font-family="Arial, sans-serif" fill="#FFFFFF" font-weight="500">Generate</text>
    <text x="7" y="51" font-size="12" font-family="Arial, sans-serif" fill="#FFFFFF" font-weight="500">Statement</text>
  </g>

  <!-- Aggregate: Monthly Statement -->
  <g transform="translate(2540, 350) rotate(1.0)">
    <rect x="0" y="2" width="150" height="110" fill="#00000020" rx="3"/>
    <rect x="0" y="0" width="150" height="110" fill="#FFD700" stroke="#333333" stroke-width="1" rx="3"/>
    <text x="10" y="38" font-size="13" font-family="Arial, sans-serif" fill="#000000" font-weight="600">Monthly</text>
    <text x="10" y="56" font-size="13" font-family="Arial, sans-serif" fill="#000000" font-weight="600">Statement</text>
  </g>

  <!-- Event: Statement Generated -->
  <g transform="translate(2720, 200) rotate(-0.6)">
    <rect x="0" y="2" width="140" height="90" fill="#00000020" rx="3"/>
    <rect x="0" y="0" width="140" height="90" fill="#FF8C00" stroke="#333333" stroke-width="1" rx="3"/>
    <text x="7" y="35" font-size="12" font-family="Arial, sans-serif" fill="#000000" font-weight="500">Statement</text>
    <text x="7" y="51" font-size="12" font-family="Arial, sans-serif" fill="#000000" font-weight="500">Generated</text>
  </g>

  <!-- Read Model: Card Transactions -->
  <g transform="translate(2920, 200) rotate(1.4)">
    <rect x="0" y="2" width="140" height="90" fill="#00000020" rx="3"/>
    <rect x="0" y="0" width="140" height="90" fill="#3CB371" stroke="#333333" stroke-width="1" rx="3"/>
    <text x="7" y="35" font-size="12" font-family="Arial, sans-serif" fill="#FFFFFF" font-weight="500">Card</text>
    <text x="7" y="51" font-size="12" font-family="Arial, sans-serif" fill="#FFFFFF" font-weight="500">Transactions</text>
  </g>

  <!-- Actor: Card Holder (appears again in billing context) -->
  <g transform="translate(2920, 350) rotate(-1.8)">
    <rect x="0" y="2" width="100" height="70" fill="#00000020" rx="3"/>
    <rect x="0" y="0" width="100" height="70" fill="#FFF8DC" stroke="#333333" stroke-width="1" rx="3"/>
    <text x="10" y="40" font-size="12" font-family="Arial, sans-serif" fill="#000000" font-weight="500">Card Holder</text>
  </g>

  <!-- Command: Pay Statement -->
  <g transform="translate(3120, 200) rotate(0.7)">
    <rect x="0" y="2" width="140" height="90" fill="#00000020" rx="3"/>
    <rect x="0" y="0" width="140" height="90" fill="#4169E1" stroke="#333333" stroke-width="1" rx="3"/>
    <text x="7" y="40" font-size="12" font-family="Arial, sans-serif" fill="#FFFFFF" font-weight="500">Pay Statement</text>
  </g>

  <!-- Event: Payment Received -->
  <g transform="translate(3320, 200) rotate(-2.0)">
    <rect x="0" y="2" width="140" height="90" fill="#00000020" rx="3"/>
    <rect x="0" y="0" width="140" height="90" fill="#FF8C00" stroke="#333333" stroke-width="1" rx="3"/>
    <text x="7" y="35" font-size="12" font-family="Arial, sans-serif" fill="#000000" font-weight="500">Payment</text>
    <text x="7" y="51" font-size="12" font-family="Arial, sans-serif" fill="#000000" font-weight="500">Received</text>
  </g>

  <!-- Policy: AutoPay -->
  <g transform="translate(2820, 530) rotate(1.5)">
    <rect x="0" y="2" width="160" height="90" fill="#00000020" rx="3"/>
    <rect x="0" y="0" width="160" height="90" fill="#9370DB" stroke="#333333" stroke-width="1" rx="3"/>
    <text x="7" y="30" font-size="11" font-family="Arial, sans-serif" fill="#FFFFFF" font-weight="500">Statement Gen.</text>
    <text x="7" y="46" font-size="11" font-family="Arial, sans-serif" fill="#FFFFFF" font-weight="500">→ AutoPay</text>
  </g>

  <!-- External System: Bank Account System -->
  <g transform="translate(3320, 440) rotate(-0.9)">
    <rect x="0" y="2" width="200" height="70" fill="#00000020" rx="3"/>
    <rect x="0" y="0" width="200" height="70" fill="#F0F0F0" stroke="#333333" stroke-width="1" rx="3"/>
    <text x="10" y="25" font-size="11" font-family="Arial, sans-serif" fill="#000000" font-weight="500">Bank Account</text>
    <text x="10" y="41" font-size="11" font-family="Arial, sans-serif" fill="#000000" font-weight="500">System</text>
    <text x="10" y="55" font-size="9" font-family="Arial, sans-serif" fill="#666666" font-weight="400">(BringotsWeb)</text>
  </g>

  <!-- Arrows: Zone 4 -->
  <!-- Generate Statement → Statement Generated -->
  <line x1="2650" y1="245" x2="2718" y2="245" stroke="#666" stroke-width="1.5" marker-end="url(#arrowhead)"/>
  <!-- Read Model → Pay Statement (informs) -->
  <line x1="3060" y1="245" x2="3118" y2="245" stroke="#666" stroke-width="1.5" stroke-dasharray="4,3" marker-end="url(#arrowhead)"/>
  <!-- Card Holder → Pay Statement -->
  <line x1="3020" y1="370" x2="3150" y2="292" stroke="#666" stroke-width="1.5" marker-end="url(#arrowhead)"/>
  <!-- Pay Statement → Payment Received -->
  <line x1="3260" y1="245" x2="3318" y2="245" stroke="#666" stroke-width="1.5" marker-end="url(#arrowhead)"/>
  <!-- Statement Generated → AutoPay policy -->
  <line x1="2790" y1="292" x2="2870" y2="528" stroke="#666" stroke-width="1.5" marker-end="url(#arrowhead)"/>
  <!-- AutoPay policy → Pay Statement (arcing up-right) -->
  <path d="M 2980 555 C 3050 480, 3120 380, 3170 292" fill="none" stroke="#666" stroke-width="1.5" marker-end="url(#arrowhead)"/>
  <!-- AutoPay → Bank Account System -->
  <line x1="2980" y1="580" x2="3318" y2="480" stroke="#666" stroke-width="1.5" stroke-dasharray="4,3" marker-end="url(#arrowhead)"/>

  <!-- ================================================================ -->
  <!-- CROSS-ZONE ARROW: Purchase Authorized → Settlement               -->
  <!-- This is an arrow with a label "Daily Batch" (NOT a sticky)       -->
  <!-- ================================================================ -->
  <path d="M 1452 245 C 1550 200, 1680 200, 1798 245" fill="none" stroke="#666" stroke-width="1.5" marker-end="url(#arrowhead)"/>
  <text x="1610" y="195" font-size="10" font-family="Arial, sans-serif" fill="#666666" font-style="italic" text-anchor="middle">Daily Batch</text>

  <!-- Title -->
  <text x="1920" y="1180" font-size="14" font-family="Arial, sans-serif" fill="#999999" text-anchor="middle">Bringots Credit Card Services — Design Level Event Storming Board</text>

</svg>
